<?xml version="1.0" encoding="utf-8"?>
<!-- Uploaded to: SVG Repo, www.svgrepo.com, Generator: SVG Repo Mixer Tools -->
<svg width="800px" height="800px" viewBox="0 0 1024 1024" class="icon"  version="1.1" xmlns="http://www.w3.org/2000/svg"><path d="M993.763 493.538v35c0 13.331-6.04 26.664-18.135 37.137-140.15 121.422-280.35 242.795-420.49 364.219-11.814 10.237-25.813 15.501-42.454 15.501v-35c16.643 0 30.64-5.264 42.454-15.501 140.141-121.424 280.336-242.802 420.49-364.217 12.095-10.475 18.135-23.803 18.135-37.139z" fill="#66BB6C" /><path d="M30.239 528.367v-3.5-1.75-3.5-3.5-1.75-3.5-3.5-1.75-3.5-3.5-1.75-3.5c0 14.707 6.701 29.313 19.037 40.019 138.449 120.064 277.049 239.996 415.562 360.02 13.002 11.26 28.74 16.466 47.852 16.994v35c-19.108-0.528-34.85-5.734-47.852-16.994C326.325 808.382 187.725 688.45 49.276 568.386c-12.337-10.705-19.037-25.312-19.037-40.019z" fill="#66BB6C" /><path d="M510.786 76.601c16.263 0 32.546 5.362 44.946 16.097 139.95 121.188 279.901 242.376 419.819 363.586 24.241 20.995 24.295 53.413 0.079 74.397-140.15 121.42-280.35 242.796-420.489 364.217-11.815 10.239-25.813 15.502-42.452 15.502-19.109-0.528-34.852-5.734-47.854-16.994-138.511-120.024-277.111-239.956-415.56-360.02-19.581-16.988-24.96-43.81-11.895-65.251 3.919-6.438 8.669-11.829 14.465-16.849C189.954 331.734 328.024 212.152 466.107 92.567c12.296-10.639 28.478-15.966 44.679-15.966z" fill="#A8D285" /><path d="M713.701 351.06v16.8H310.297v-16.8h403.404z" fill="#428160" /><path d="M713.701 351.06v16.8H310.297v-16.8h403.404" fill="#428160" /><path d="M460.491 443.086c0.011 0.331 0.017 0.663 0.017 0.994-0.01 20.691-20.805 40.344-45.416 40.655a47.368 47.368 0 0 1-2.893-0.051c-27.851-0.02-48.263-17.757-48.223-41.929 0-0.369 0.007-0.737 0.018-1.104 0.665-23.104 21.23-40.361 48.376-40.351 27.448 0.006 47.356 17.893 48.121 41.786z m-48.171 18.707c11.067-0.086 21.48-9.184 21.48-18.759 0-9.558-10.482-18.691-21.531-18.741-0.249 0-0.422 0.001-0.595 0.007-10.792 0.286-21.2 9.453-21.171 18.755a8.365 8.365 0 0 0 0.01 0.447c0.346 9.353 10.676 18.153 21.409 18.29l0.257 0.001h0.141" fill="#E1E888" /><path d="M412.192 424.292c11.125 0.051 21.607 9.184 21.607 18.741 0 9.577-10.413 18.673-21.48 18.759h-0.142l-0.257-0.001c-10.732-0.137-21.063-8.937-21.409-18.29l-0.007-0.223c-0.001-0.074-0.003-0.149-0.003-0.225-0.028-9.302 10.378-18.469 21.171-18.755 0.175-0.005 0.349-0.006 0.52-0.006z" fill="#D7EAD0" /><path d="M473.745 497.767v-0.14-0.146-0.151-0.156-0.154-0.15-0.147-0.138-1.824-1.935-2.007-2.042-2.042-2.007-1.935-1.822l0.28-0.007v16.8c-0.094-0.001-0.187 0-0.28 0.003z" fill="#428160" /><path d="M474.025 480.96v16.8c-0.767 0.014-1.505 0.068-2.217 0.167v-16.8c0.712-0.099 1.45-0.155 2.217-0.167" fill="#428160" /><path d="M474.604 497.785a13.982 13.982 0 0 0-0.58-0.024v-16.8c0.193 0.004 0.387 0.012 0.58 0.025v16.799z" fill="#428160" /><path d="M515.438 512.102v16.8c-1.301-1.064-2.5-1.998-3.64-2.985-9.294-8.031-18.566-16.096-27.881-24.12-3.028-2.606-6.441-3.955-9.892-4.037v-16.8c3.452 0.082 6.865 1.432 9.892 4.038 9.315 8.022 18.587 16.087 27.882 24.12 1.139 0.985 2.338 1.919 3.639 2.984" fill="#428160" /><path d="M473.745 497.767c-3.083 0.096-5.678 0.88-8.103 2.354v-2.1-2.1-2.1-2.1-2.1-2.1-2.1-2.099c2.425-1.474 5.02-2.259 8.103-2.354v16.799z" fill="#428160" /><path d="M474.025 480.96v16.8c-0.767 0.014-1.505 0.068-2.217 0.167v-16.8c0.712-0.099 1.45-0.155 2.217-0.167M471.808 481.127v16.8c-1.176 0.16-2.282 0.435-3.34 0.825v-16.8a15.712 15.712 0 0 1 3.34-0.825M468.467 481.951v16.8a16.302 16.302 0 0 0-3.176 1.587v-16.8a16.358 16.358 0 0 1 3.176-1.587" fill="#428160" /><path d="M465.642 500.121c-0.237 0.144-0.471 0.294-0.704 0.449v-16.8c0.233-0.154 0.467-0.306 0.704-0.448v16.799z" fill="#428160" /><path d="M468.467 481.951v16.8a16.302 16.302 0 0 0-3.176 1.587v-16.8a16.358 16.358 0 0 1 3.176-1.587" fill="#428160" /><path d="M465.292 483.537v16.8c-0.118 0.076-0.235 0.153-0.353 0.231v-16.8c0.116-0.076 0.233-0.154 0.353-0.231" fill="#428160" /><path d="M464.166 501.159c0-5.603 0.006-11.204 0.006-16.805 0.255-0.193 0.511-0.387 0.766-0.584v16.8c-0.258 0.195-0.515 0.392-0.772 0.589z" fill="#428160" /><path d="M464.938 483.77v16.8a122698.577 122698.577 0 0 0-128.349 97.828c-1.564 1.189-3.095 2.452-4.405 3.85-0.09 0.096-0.179 0.197-0.264 0.297v-16.8c0.085-0.1 0.174-0.201 0.264-0.297 1.311-1.397 2.842-2.66 4.405-3.85 42.456-32.396 84.913-64.774 128.349-97.828" fill="#428160" /><path d="M474.604 497.785v-1.85-1.965-2.039-2.074-2.077-2.038-1.965-1.851-0.111-0.116-0.122-0.122-0.125-0.121-0.116-0.11c3.254 0.212 6.455 1.552 9.313 4.013 9.314 8.022 18.587 16.087 27.882 24.12a0.05 0.05 0 0 0 0.014 0.012v16.801l-0.014-0.014c-9.295-8.03-18.568-16.096-27.882-24.12-2.858-2.459-6.059-3.797-9.313-4.01z" fill="#428160" /><path d="M515.438 512.102v16.8c-1.301-1.064-2.5-1.998-3.64-2.985-9.294-8.031-18.566-16.096-27.881-24.12-3.028-2.606-6.441-3.955-9.892-4.037v-16.8c3.452 0.082 6.865 1.432 9.892 4.038 9.315 8.022 18.587 16.087 27.882 24.12 1.139 0.985 2.338 1.919 3.639 2.984" fill="#428160" /><path d="M515.431 528.896c-1.294-1.059-2.486-1.988-3.618-2.967v-16.801c1.132 0.98 2.324 1.91 3.618 2.968v16.8z" fill="#428160" /><path d="M515.438 512.102v16.8c-1.301-1.064-2.5-1.998-3.64-2.985-9.294-8.031-18.566-16.096-27.881-24.12-3.028-2.606-6.441-3.955-9.892-4.037v-16.8c3.452 0.082 6.865 1.432 9.892 4.038 9.315 8.022 18.587 16.087 27.882 24.12 1.139 0.985 2.338 1.919 3.639 2.984" fill="#428160" /><path d="M515.438 528.901l-0.007-0.005v-16.8a0.042 0.042 0 0 0 0.007 0.005v16.8z" fill="#428160" /><path d="M515.438 512.102v16.8c-1.301-1.064-2.5-1.998-3.64-2.985-9.294-8.031-18.566-16.096-27.881-24.12-3.028-2.606-6.441-3.955-9.892-4.037v-16.8c3.452 0.082 6.865 1.432 9.892 4.038 9.315 8.022 18.587 16.087 27.882 24.12 1.139 0.985 2.338 1.919 3.639 2.984" fill="#428160" /><path d="M571.846 475.416c-18.729 17.746-37.448 35.503-56.408 53.485v-16.8c18.96-17.982 37.68-35.739 56.408-53.485 4.406-4.175 8.752-8.4 13.706-12.899v16.8c-4.954 4.499-9.297 8.724-13.706 12.899z" fill="#428160" /><path d="M585.981 445.327v16.8c-5.134 4.647-9.6 8.992-14.136 13.289-18.729 17.746-37.448 35.503-56.408 53.485v-16.8c18.96-17.982 37.68-35.739 56.408-53.485 4.536-4.296 9.003-8.642 14.136-13.289" fill="#428160" /><path d="M310.299 351.06h403.402v269.48H310.299V351.06z m387.265 183.135c3.113-2.729 4.324-5.514 4.359-8.33 0.039-3-1.256-6.032-3.907-8.316-4.133-3.543-8.477-6.904-12.771-10.318-26.068-20.706-52.145-41.42-78.243-62.11a26.732 26.732 0 0 0-0.729-0.558c-3.507-2.427-6.421-3.473-9.304-3.58-4.307 0.086-7.721 1.536-10.988 4.345-5.134 4.647-9.6 8.992-14.136 13.289-18.729 17.746-37.448 35.503-56.408 53.486-1.301-1.065-2.5-1.999-3.639-2.986-9.295-8.031-18.567-16.096-27.882-24.12-3.028-2.606-6.441-3.956-9.892-4.038-3.509 0.062-6.387 0.997-9.087 2.81a125520.556 125520.556 0 0 0-128.349 97.828c-1.564 1.189-3.095 2.452-4.405 3.85-1.589 1.678-2.356 4.114-2.352 6.575 0.002 2.79 0.998 5.619 2.916 7.426 2.945 2.778 6.42 4.228 9.993 4.313 3.884-0.069 7.166-1.245 10.187-3.543 38.556-29.374 77.092-58.768 115.649-88.151 1.511-1.151 3.074-2.269 4.797-3.543 14.193 12.334 27.992 24.329 41.804 36.314 11.065 9.611 22.136 19.23 33.264 28.79 2.57 2.202 5.973 3.314 9.354 3.35 3.666-0.063 6.804-1.09 9.163-3.07 2.796-2.35 4.215-5.344 4.247-8.363 0.029-3.018-1.325-6.059-4.076-8.493-2.399-2.122-4.848-4.218-7.267-6.32-8.418-7.28-16.833-14.57-25.453-22.034 21.067-19.973 41.862-39.7 62.9-59.647 6.735 5.341 13.214 10.485 19.696 15.625 20.796 16.507 41.578 33.034 62.413 49.514 2.46 1.943 5.431 2.955 8.433 3.073 4.067-0.063 7.177-1.102 9.713-3.068m-333.572-92.546c-0.009 0.368-0.015 0.735-0.015 1.104-0.041 24.173 20.371 41.911 48.222 41.929a48.697 48.697 0 0 0 2.254 0.055l0.638-0.002c24.614-0.309 45.407-19.961 45.416-40.656 0-0.331-0.005-0.665-0.017-0.993-0.766-23.893-20.673-41.78-48.122-41.789-27.146-0.008-47.711 17.248-48.376 40.352" fill="#D7EAD0" /><path d="M740.241 340.68c-0.282 96.731-0.282 193.464 0 290.196 0.021 7.308-6.229 12.657-14.525 12.649-71.23-0.113-142.458-0.171-213.686-0.171-71.228 0-142.457 0.058-213.686 0.171-8.436 0-14.596-5.408-14.577-12.605 0.272-96.732 0.272-193.464-0.009-290.188-0.02-7.283 6.189-12.659 14.457-12.659 38.609 0.156 77.146 0.192 115.676 0.192 32.698 0 65.389-0.025 98.089-0.025 32.692 0 65.39 0.025 98.082 0.025 38.533 0 77.062-0.035 115.595-0.192 8.476 0.001 14.605 5.437 14.584 12.607z m-26.54 279.862V351.06H310.297v269.482h403.404" fill="#55A77F" /><path d="M596.124 440.977c3.729 0.112 6.643 1.157 9.525 3.141 0.868 0.624 1.11 0.808 1.356 1.002 26.099 20.687 52.175 41.403 78.241 62.11 4.295 3.414 8.638 6.775 12.771 10.318 2.65 2.286 3.945 5.318 3.907 8.317-0.036 2.814-1.247 5.601-3.615 7.711-3.279 2.585-6.392 3.624-9.523 3.692-3.939-0.127-6.91-1.138-9.367-3.082-20.834-16.479-41.619-33.005-62.414-49.512l-19.694-15.625c-21.037 19.947-41.835 39.676-62.902 59.647 8.619 7.464 17.035 14.752 25.453 22.033 2.42 2.104 4.87 4.199 7.267 6.319 2.751 2.437 4.108 5.476 4.077 8.494-0.031 3.018-1.45 6.015-4.248 8.363-2.359 1.981-5.497 3.008-8.691 3.071-3.853-0.034-7.255-1.146-9.825-3.352-11.128-9.558-22.196-19.178-33.264-28.789-13.811-11.985-27.611-23.98-41.802-36.313-1.724 1.273-3.285 2.393-4.797 3.544-38.558 29.384-77.093 58.773-115.647 88.152-3.021 2.298-6.303 3.471-9.528 3.543-4.231-0.087-7.707-1.536-10.651-4.314-1.918-1.808-2.914-4.636-2.917-7.427-0.002-2.464 0.764-4.897 2.353-6.574 1.31-1.397 2.841-2.661 4.404-3.851 42.457-32.396 84.913-64.773 127.392-97.141 3.659-2.499 6.537-3.435 9.401-3.497 4.096 0.084 7.509 1.433 10.537 4.037 9.313 8.022 18.587 16.089 27.882 24.121 1.137 0.986 2.337 1.921 3.638 2.986 18.96-17.982 37.68-35.739 56.408-53.485 4.535-4.296 9.002-8.642 13.638-12.849 3.76-3.248 7.174-4.699 10.635-4.79z" fill="#89C570" /><path d="M740.241 630.876v16.8c0.021 7.308-6.229 12.658-14.525 12.649-71.23-0.113-142.458-0.171-213.686-0.171-71.228 0-142.457 0.058-213.686 0.171-8.436 0-14.596-5.408-14.577-12.605v-16.8c-0.019 7.197 6.14 12.605 14.577 12.605 71.229-0.113 142.458-0.171 213.686-0.171 71.228 0 142.455 0.058 213.686 0.171 8.296 0.008 14.547-5.341 14.525-12.649z" fill="#428160" /><path d="M740.241 630.876v16.8c0.001 0.272-0.006 0.542-0.024 0.809v-16.8c0.018-0.267 0.025-0.537 0.024-0.809" fill="#428160" /><path d="M740.218 631.685v16.8a11.654 11.654 0 0 1-2.765 6.891v-16.8a11.67 11.67 0 0 0 2.765-6.891M737.453 638.575v16.8a12.881 12.881 0 0 1-2.908 2.526v-16.8c1.112-0.71 2.09-1.56 2.908-2.526M734.545 641.102v16.8a14.707 14.707 0 0 1-2.839 1.401v-16.8a14.764 14.764 0 0 0 2.839-1.401" fill="#428160" /><path d="M731.706 642.503v16.8a16.432 16.432 0 0 1-3.473 0.854v-16.8a16.539 16.539 0 0 0 3.473-0.854M728.231 643.357v16.8c-0.813 0.112-1.654 0.17-2.516 0.168-71.23-0.113-142.458-0.171-213.686-0.171-71.228 0-142.457 0.058-213.686 0.171-8.436 0-14.596-5.408-14.577-12.605v-16.8c-0.019 7.197 6.14 12.605 14.577 12.605 71.229-0.113 142.458-0.171 213.686-0.171 71.228 0 142.455 0.058 213.686 0.171 0.865 0.001 1.703-0.055 2.516-0.168" fill="#428160" /></svg>